<?xml version="1.0" encoding="UTF-8" standalone="no"?>
<svg
   xmlns:dc="http://purl.org/dc/elements/1.1/"
   xmlns:cc="http://creativecommons.org/ns#"
   xmlns:rdf="http://www.w3.org/1999/02/22-rdf-syntax-ns#"
   xmlns:svg="http://www.w3.org/2000/svg"
   xmlns="http://www.w3.org/2000/svg"
   width="23.932312mm"
   height="14.93829mm"
   viewBox="0 0 23.932313 14.938289"
   version="1.1"
   id="svg8">
  <defs
     id="defs2" />
  <metadata
     id="metadata5">
    <rdf:RDF>
      <cc:Work
         rdf:about="">
        <dc:format>image/svg+xml</dc:format>
        <dc:type
           rdf:resource="http://purl.org/dc/dcmitype/StillImage" />
        <dc:title></dc:title>
      </cc:Work>
    </rdf:RDF>
  </metadata>
  <g
     id="layer2"
     transform="translate(-93.045398,-141.55499)">
    <g
       aria-label="upjs"
       id="text884-7"
       style="font-style:normal;font-variant:normal;font-weight:bold;font-stretch:normal;font-size:12.8266px;line-height:1.25;font-family:'Neutra Text';-inkscape-font-specification:'Neutra Text, Bold';font-variant-ligatures:normal;font-variant-caps:normal;font-variant-numeric:normal;font-variant-east-asian:normal;fill:#2e2e2c;fill-opacity:1;stroke:#f8dc3d;stroke-width:2.5;stroke-linecap:round;stroke-linejoin:round;stroke-miterlimit:4;stroke-dasharray:none;stroke-opacity:1;paint-order:stroke fill markers">
      <path
         d="m 96.334827,151.46294 c 0.75677,0 1.385273,-0.35914 1.718765,-1.0133 l -0.03848,0.89786 h 1.731591 v -5.46413 h -1.731591 v 2.92447 c 0,0.69263 -0.384798,1.09026 -1.077434,1.09026 -0.615677,0 -0.910689,-0.35915 -0.910689,-0.97482 v -3.03991 h -1.731591 v 3.15535 c 0,1.55201 0.846556,2.42422 2.039429,2.42422 z"
         style="font-style:normal;font-variant:normal;font-weight:bold;font-stretch:normal;font-size:12.8266px;font-family:'Neutra Text';-inkscape-font-specification:'Neutra Text, Bold';font-variant-ligatures:normal;font-variant-caps:normal;font-variant-numeric:normal;font-variant-east-asian:normal;fill:#2e2e2c;fill-opacity:1;stroke:#f8dc3d;stroke-width:2.5;stroke-linecap:round;stroke-linejoin:round;stroke-miterlimit:4;stroke-dasharray:none;stroke-opacity:1;paint-order:stroke fill markers"
         id="path1503" />
      <path
         d="m 101.09791,154.06674 h 1.73159 v -3.45035 c 0.28218,0.50023 0.84655,0.84655 1.68028,0.84655 1.33397,0 2.47553,-1.18004 2.47553,-2.86033 0,-1.68028 -1.11591,-2.83468 -2.43705,-2.83468 -0.84655,0 -1.42375,0.37197 -1.75724,0.962 l 0.0385,-0.84656 h -1.73159 z m 2.91163,-4.11734 c -0.74394,0 -1.23135,-0.48741 -1.23135,-1.34679 0,-0.80807 0.48741,-1.30831 1.23135,-1.30831 0.73112,0 1.19288,0.50024 1.19288,1.30831 0,0.85938 -0.46176,1.34679 -1.19288,1.34679 z"
         style="font-style:normal;font-variant:normal;font-weight:bold;font-stretch:normal;font-size:12.8266px;font-family:'Neutra Text';-inkscape-font-specification:'Neutra Text, Bold';font-variant-ligatures:normal;font-variant-caps:normal;font-variant-numeric:normal;font-variant-east-asian:normal;fill:#2e2e2c;fill-opacity:1;stroke:#f8dc3d;stroke-width:2.5;stroke-linecap:round;stroke-linejoin:round;stroke-miterlimit:4;stroke-dasharray:none;stroke-opacity:1;paint-order:stroke fill markers"
         id="path1505" />
      <g
         id="g1548"
         style="opacity:1">
        <path
           style="color:#000000;font-style:normal;font-variant:normal;font-weight:bold;font-stretch:normal;font-size:12.8266px;line-height:1.25;font-family:'Neutra Text';-inkscape-font-specification:'Neutra Text, Bold';font-variant-ligatures:normal;font-variant-position:normal;font-variant-caps:normal;font-variant-numeric:normal;font-variant-alternates:normal;font-variant-east-asian:normal;font-feature-settings:normal;font-variation-settings:normal;text-indent:0;text-align:start;text-decoration:none;text-decoration-line:none;text-decoration-style:solid;text-decoration-color:#000000;letter-spacing:normal;word-spacing:normal;text-transform:none;writing-mode:lr-tb;direction:ltr;text-orientation:mixed;dominant-baseline:auto;baseline-shift:baseline;text-anchor:start;white-space:normal;shape-padding:0;shape-margin:0;inline-size:0;clip-rule:nonzero;display:inline;overflow:visible;visibility:visible;isolation:auto;mix-blend-mode:normal;color-interpolation:sRGB;color-interpolation-filters:linearRGB;solid-color:#000000;solid-opacity:1;vector-effect:none;fill:#f8dc3d;fill-opacity:1;fill-rule:nonzero;stroke:none;stroke-width:2.5;stroke-linecap:round;stroke-linejoin:round;stroke-miterlimit:4;stroke-dasharray:none;stroke-dashoffset:0;stroke-opacity:1;paint-order:stroke fill markers;color-rendering:auto;image-rendering:auto;shape-rendering:auto;text-rendering:auto;enable-background:accumulate;stop-color:#000000;stop-opacity:1"
           d="m 113.39648,144.51758 c -0.76218,0 -1.5503,0.14793 -2.23242,0.64453 -0.68211,0.4966 -1.13476,1.40103 -1.13476,2.33789 0,0.61807 0.2339,1.15515 0.53711,1.61328 l -0.42383,0.375 a 1.250125,1.250125 0 0 0 -0.12696,1.74024 c 0.66657,0.79266 1.86209,1.48437 3.44336,1.48437 1.05839,0 1.98366,-0.26362 2.63086,-0.88086 0.64721,-0.61724 0.86524,-1.47215 0.86524,-2.19141 0,-0.82128 -0.41784,-1.52166 -0.91211,-1.99023 l 0.25391,-0.27148 a 1.250125,1.250125 0 0 0 -0.0176,-1.72461 c -0.67821,-0.69759 -1.71115,-1.13672 -2.88282,-1.13672 z"
           id="path1550" />
      </g>
      <path
         d="m 109.0989,144.97268 c 0.59002,0 1.09026,-0.44893 1.09026,-1.09026 0,-0.6285 -0.50024,-1.07743 -1.09026,-1.07743 -0.59003,0 -1.10309,0.44893 -1.10309,1.07743 0,0.64133 0.51306,1.09026 1.10309,1.09026 z m -1.10309,9.22233 c 1.28266,0 1.96247,-0.71829 1.96247,-1.9753 v -6.33634 h -1.73159 v 6.40048 c 0,0.28218 -0.12827,0.4361 -0.39763,0.4361 -0.14109,0 -0.28218,-0.077 -0.42327,-0.20523 l -0.85939,1.02613 c 0.25654,0.32067 0.80808,0.65416 1.44941,0.65416 z"
         style="font-style:normal;font-variant:normal;font-weight:bold;font-stretch:normal;font-size:12.8266px;font-family:'Neutra Text';-inkscape-font-specification:'Neutra Text, Bold';font-variant-ligatures:normal;font-variant-caps:normal;font-variant-numeric:normal;font-variant-east-asian:normal;fill:#2e2e2c;fill-opacity:1;stroke:#f8dc3d;stroke-width:2.5;stroke-linecap:round;stroke-linejoin:round;stroke-miterlimit:4;stroke-dasharray:none;stroke-opacity:1;paint-order:stroke fill markers"
         id="path1507" />
      <path
         id="path1552"
         d="m 113.45994,151.46294 c 1.71877,0 2.24466,-0.8209 2.24466,-1.82137 0,-1.1544 -1.00048,-1.52637 -1.79573,-1.70594 -0.74394,-0.16675 -1.09026,-0.20523 -1.09026,-0.51307 0,-0.21805 0.1924,-0.32066 0.59003,-0.32066 0.41045,0 0.79524,0.1924 1.05178,0.41045 l 0.92351,-0.98765 c -0.44893,-0.46176 -1.09026,-0.75677 -1.98812,-0.75677 -1.16722,0 -2.11639,0.50024 -2.11639,1.73159 0,1.14157 0.83373,1.55202 1.57767,1.74442 0.88504,0.23088 1.23135,0.23088 1.23135,0.52589 0,0.23088 -0.17957,0.33349 -0.74394,0.33349 -0.51306,0 -0.98765,-0.21805 -1.35962,-0.57719 l -1.0133,0.89786 c 0.47459,0.56437 1.21853,1.03895 2.48836,1.03895 z"
         style="color:#000000;font-style:normal;font-variant:normal;font-weight:bold;font-stretch:normal;font-size:12.8266px;line-height:1.25;font-family:'Neutra Text';-inkscape-font-specification:'Neutra Text, Bold';font-variant-ligatures:normal;font-variant-position:normal;font-variant-caps:normal;font-variant-numeric:normal;font-variant-alternates:normal;font-variant-east-asian:normal;font-feature-settings:normal;font-variation-settings:normal;text-indent:0;text-align:start;text-decoration:none;text-decoration-line:none;text-decoration-style:solid;text-decoration-color:#000000;letter-spacing:normal;word-spacing:normal;text-transform:none;writing-mode:lr-tb;direction:ltr;text-orientation:mixed;dominant-baseline:auto;baseline-shift:baseline;text-anchor:start;white-space:normal;shape-padding:0;shape-margin:0;inline-size:0;clip-rule:nonzero;display:inline;overflow:visible;visibility:visible;opacity:1;isolation:auto;mix-blend-mode:normal;color-interpolation:sRGB;color-interpolation-filters:linearRGB;solid-color:#000000;solid-opacity:1;vector-effect:none;fill:#2e2e2c;fill-opacity:1;fill-rule:nonzero;stroke:none;stroke-width:2.5;stroke-linecap:round;stroke-linejoin:round;stroke-miterlimit:4;stroke-dasharray:none;stroke-dashoffset:0;stroke-opacity:1;paint-order:stroke fill markers;color-rendering:auto;image-rendering:auto;shape-rendering:auto;text-rendering:auto;enable-background:accumulate;stop-color:#000000;stop-opacity:1" />
      <g
         style="font-size:4.04891px;line-height:1.25;font-family:'Connection III';-inkscape-font-specification:'Connection III';stroke:#652076;stroke-width:0.353;stroke-linejoin:miter;stroke-miterlimit:4;stroke-dasharray:none;stroke-opacity:1"
         id="text1431"
         aria-label=".NET">
        <path
           id="path1433"
           style="font-style:normal;font-variant:normal;font-weight:bold;font-stretch:normal;font-size:4.04891px;font-family:Corbel;-inkscape-font-specification:'Corbel, Bold';font-variant-ligatures:normal;font-variant-caps:normal;font-variant-numeric:normal;font-variant-east-asian:normal;fill:#ffffff;fill-opacity:1;stroke:#652076;stroke-width:0.553;stroke-linejoin:miter;stroke-miterlimit:4;stroke-dasharray:none;stroke-opacity:1"
           d="m 108.60029,155.68892 h 0.53182 v 0.52786 h -0.53182 z" />
        <path
           id="path1435"
           style="font-style:normal;font-variant:normal;font-weight:bold;font-stretch:normal;font-size:4.04891px;font-family:Corbel;-inkscape-font-specification:'Corbel, Bold';font-variant-ligatures:normal;font-variant-caps:normal;font-variant-numeric:normal;font-variant-east-asian:normal;fill:#ffffff;fill-opacity:1;stroke:#652076;stroke-width:0.553;stroke-linejoin:miter;stroke-miterlimit:4;stroke-dasharray:none;stroke-opacity:1"
           d="m 111.0601,154.80124 q 0.28469,0.40529 0.46262,0.71964 h 0.0119 q -0.0237,-0.516 -0.0237,-0.75127 v -1.19806 h 0.48437 v 2.64523 h -0.50809 l -0.86197,-1.21783 q -0.22736,-0.31633 -0.47053,-0.73347 h -0.0119 q 0.0237,0.48634 0.0237,0.75324 v 1.19806 h -0.48438 v -2.64523 h 0.50809 z" />
        <path
           id="path1437"
           style="font-style:normal;font-variant:normal;font-weight:bold;font-stretch:normal;font-size:4.04891px;font-family:Corbel;-inkscape-font-specification:'Corbel, Bold';font-variant-ligatures:normal;font-variant-caps:normal;font-variant-numeric:normal;font-variant-east-asian:normal;fill:#ffffff;fill-opacity:1;stroke:#652076;stroke-width:0.553;stroke-linejoin:miter;stroke-miterlimit:4;stroke-dasharray:none;stroke-opacity:1"
           d="m 112.96584,155.8115 h 1.05573 v 0.40528 h -1.54009 v -2.64523 h 1.54009 v 0.40528 h -1.05573 v 0.68405 h 1.05573 v 0.40528 h -1.05573 z" />
        <path
           id="path1439"
           style="font-style:normal;font-variant:normal;font-weight:bold;font-stretch:normal;font-size:4.04891px;font-family:Corbel;-inkscape-font-specification:'Corbel, Bold';font-variant-ligatures:normal;font-variant-caps:normal;font-variant-numeric:normal;font-variant-east-asian:normal;fill:#ffffff;fill-opacity:1;stroke:#652076;stroke-width:0.553;stroke-linejoin:miter;stroke-miterlimit:4;stroke-dasharray:none;stroke-opacity:1"
           d="m 115.84912,156.21678 h -0.48437 v -2.23995 h -0.85407 v -0.40528 h 2.19053 v 0.40528 h -0.85209 z" />
      </g>
    </g>
  </g>
</svg>
